<?xml version="1.0" encoding="UTF-8"?>
<!DOCTYPE svg PUBLIC "-//W3C//DTD SVG 1.1//EN" "http://www.w3.org/Graphics/SVG/1.1/DTD/svg11.dtd">
<svg version="1.1" xmlns="http://www.w3.org/2000/svg" xmlns:xlink="http://www.w3.org/1999/xlink" x="0" y="0" width="612" height="792" viewBox="0, 0, 612, 792">
  <g id="Layer_1">
    <path d="M217.529,221.809 Q225.658,221.809 229.851,227.029 Q232.846,230.879 232.846,237.64 Q232.846,244.828 230.536,250.818 Q229.252,253.984 228.012,255.653 Q226.771,257.321 224.974,258.391 Q223.177,259.461 222.193,259.717 Q221.209,259.974 219.839,260.231 L228.653,284.448 L212.737,284.448 L205.805,260.915 L199.045,260.316 L195.28,284.448 L181.246,284.448 L191.173,221.809 z M211.368,249.62 Q215.646,249.62 217.187,246.197 Q218.47,243.287 218.47,240.036 Q218.47,236.784 217.871,235.672 Q216.93,233.96 214.02,233.96 L203.324,233.96 L200.842,249.62 z" fill="#FFFFFF"/>
    <path d="M261.683,221.509 Q264.037,221.381 267.588,221.381 Q271.139,221.381 273.792,221.723 Q276.445,222.066 279.055,223.007 Q281.665,223.948 283.547,225.488 Q289.452,230.623 289.452,242.945 Q289.452,248.422 288.468,254.711 Q287.484,261.001 286.114,265.493 Q284.745,269.986 283.205,273.109 Q281.665,276.233 279.44,278.415 Q277.215,280.597 275.118,281.838 Q273.022,283.079 270.027,283.763 Q265.32,284.79 259.972,284.79 Q254.624,284.79 251.971,284.491 Q249.318,284.191 246.665,283.293 Q244.013,282.394 242.216,280.854 Q238.023,277.345 236.825,270.927 Q236.311,267.932 236.311,265.622 Q236.311,263.311 236.354,260.616 Q236.397,257.92 237.381,251.845 Q238.365,245.769 239.82,241.02 Q241.274,236.271 242.815,233.062 Q244.355,229.853 246.708,227.628 Q249.062,225.403 251.072,224.162 Q253.083,222.921 256.207,222.279 Q259.33,221.638 261.683,221.509 z M253.212,244.657 Q252.228,248.165 251.286,254.155 Q250.345,260.145 250.345,262.199 Q250.345,264.253 250.473,265.793 Q250.602,267.333 251.158,268.574 Q251.714,269.815 252.912,270.671 Q254.966,272.04 259.673,272.04 Q264.379,272.04 266.946,270.585 Q269.513,269.13 271.31,265.151 Q273.107,261.172 274.134,254.754 Q275.332,247.224 275.332,244.058 Q275.332,240.891 274.99,238.966 Q274.648,237.041 273.321,235.971 Q271.995,234.901 270.369,234.516 Q268.743,234.131 265.919,234.131 Q263.095,234.131 261.384,234.431 Q259.673,234.73 258.004,235.8 Q256.335,236.87 255.266,239.009 Q254.196,241.148 253.212,244.657 z" fill="#FFFFFF"/>
    <path d="M326.248,221.809 Q330.954,221.809 334.377,223.306 Q337.8,224.804 339.426,227.285 Q342.079,231.307 342.079,236.356 Q342.079,238.153 341.736,240.036 Q341.052,244.742 338.057,248.08 Q335.062,251.417 330.783,251.93 Q334.891,252.615 337.201,256.979 Q338.913,260.145 338.913,264.424 Q338.913,269.9 337.244,273.922 Q335.575,277.944 333.864,279.827 Q332.152,281.709 329.414,282.736 Q324.879,284.448 316.578,284.448 L290.479,284.448 L300.405,221.809 z M324.879,262.884 Q324.879,257.407 320.258,257.407 L308.791,257.407 L306.395,272.297 L317.862,272.297 Q323.595,272.297 324.708,265.023 Q324.879,263.91 324.879,262.884 z M321.456,245.94 Q324.964,245.94 326.676,243.116 Q327.874,241.148 327.874,238.324 Q327.874,233.96 323.338,233.96 L312.556,233.96 L310.674,245.94 z" fill="#FFFFFF"/>
    <path d="M370.018,221.509 Q372.371,221.381 375.923,221.381 Q379.474,221.381 382.127,221.723 Q384.779,222.066 387.389,223.007 Q389.999,223.948 391.882,225.488 Q397.786,230.623 397.786,242.945 Q397.786,248.422 396.802,254.711 Q395.818,261.001 394.449,265.493 Q393.08,269.986 391.54,273.109 Q389.999,276.233 387.774,278.415 Q385.549,280.597 383.453,281.838 Q381.356,283.079 378.361,283.763 Q373.655,284.79 368.307,284.79 Q362.958,284.79 360.306,284.491 Q357.653,284.191 355,283.293 Q352.347,282.394 350.55,280.854 Q346.357,277.345 345.159,270.927 Q344.646,267.932 344.646,265.622 Q344.646,263.311 344.689,260.616 Q344.731,257.92 345.716,251.845 Q346.7,245.769 348.154,241.02 Q349.609,236.271 351.149,233.062 Q352.69,229.853 355.043,227.628 Q357.396,225.403 359.407,224.162 Q361.418,222.921 364.541,222.279 Q367.665,221.638 370.018,221.509 z M361.546,244.657 Q360.562,248.165 359.621,254.155 Q358.68,260.145 358.68,262.199 Q358.68,264.253 358.808,265.793 Q358.936,267.333 359.493,268.574 Q360.049,269.815 361.247,270.671 Q363.301,272.04 368.007,272.04 Q372.714,272.04 375.281,270.585 Q377.848,269.13 379.645,265.151 Q381.442,261.172 382.469,254.754 Q383.667,247.224 383.667,244.058 Q383.667,240.891 383.325,238.966 Q382.982,237.041 381.656,235.971 Q380.33,234.901 378.704,234.516 Q377.078,234.131 374.254,234.131 Q371.43,234.131 369.719,234.431 Q368.007,234.73 366.338,235.8 Q364.67,236.87 363.6,239.009 Q362.531,241.148 361.546,244.657 z" fill="#FFFFFF"/>
    <path d="M402.407,234.559 L404.461,221.809 L451.783,221.809 L449.729,234.559 L432.785,234.559 L424.913,284.448 L410.879,284.448 L418.752,234.559 z" fill="#FFFFFF"/>
    <path d="M125.486,468.451 Q127.839,468.323 131.389,468.323 Q134.941,468.323 137.594,468.665 Q140.247,469.007 142.857,469.949 Q145.467,470.89 147.348,472.43 Q153.254,477.565 153.254,489.887 Q153.254,495.364 152.27,501.653 Q151.286,507.943 149.917,512.435 Q148.547,516.928 147.007,520.051 Q145.467,523.175 143.242,525.357 Q141.017,527.539 138.921,528.78 Q136.824,530.021 133.829,530.705 Q129.122,531.732 123.774,531.732 Q118.426,531.732 115.773,531.432 Q113.12,531.133 110.468,530.234 Q107.815,529.336 106.018,527.796 Q101.825,524.287 100.627,517.869 Q100.113,514.874 100.113,512.564 Q100.113,510.253 100.156,507.558 Q100.199,504.862 101.183,498.787 Q102.167,492.711 103.622,487.962 Q105.076,483.212 106.617,480.003 Q108.157,476.795 110.511,474.57 Q112.864,472.345 114.875,471.104 Q116.886,469.863 120.009,469.221 Q123.132,468.58 125.486,468.451 z M117.014,491.599 Q116.03,495.107 115.089,501.097 Q114.146,507.087 114.146,509.141 Q114.146,511.195 114.276,512.735 Q114.404,514.275 114.96,515.516 Q115.517,516.757 116.715,517.613 Q118.768,518.982 123.475,518.982 Q128.18,518.982 130.747,517.527 Q133.316,516.072 135.113,512.093 Q136.91,508.114 137.936,501.696 Q139.133,494.166 139.133,491 Q139.133,487.833 138.792,485.908 Q138.45,483.983 137.124,482.913 Q135.797,481.843 134.171,481.458 Q132.545,481.073 129.721,481.073 Q126.898,481.073 125.186,481.373 Q123.475,481.672 121.806,482.742 Q120.137,483.811 119.068,485.951 Q117.998,488.09 117.014,491.599 z" fill="#FFFFFF"/>
    <path d="M158.217,468.751 L173.021,468.751 L177.984,513.591 L197.837,468.751 L213.411,468.751 L183.632,531.39 L167.031,531.39 z" fill="#FFFFFF"/>
    <path d="M222.395,470.976 Q224.792,469.692 227.145,469.221 Q229.499,468.751 231.038,468.751 Q232.579,468.751 232.751,468.751 Q251.661,469.093 259.021,470.12 L257.138,481.843 L234.548,481.843 Q230.354,481.843 229.583,485.181 Q229.499,485.694 229.327,486.635 L228.3,493.481 L251.062,494.422 L249.18,505.975 L226.161,506.745 L224.964,514.104 Q224.449,517.356 226.161,518.04 Q227.445,518.554 229.583,518.554 L251.404,518.554 L249.522,530.192 Q243.447,530.962 228.557,531.475 L223.594,531.646 Q223.167,531.646 222.182,531.646 Q221.197,531.646 219.486,531.39 Q217.775,531.133 215.721,530.192 Q210.074,527.539 210.074,520.608 Q210.074,519.238 210.244,517.698 L215.977,481.758 Q217.262,473.628 222.395,470.976 z" fill="#FFFFFF"/>
    <path d="M292.566,468.751 Q300.695,468.751 304.888,473.971 Q307.883,477.821 307.883,484.582 Q307.883,491.77 305.573,497.76 Q304.289,500.926 303.048,502.595 Q301.808,504.263 300.01,505.333 Q298.214,506.403 297.229,506.659 Q296.245,506.916 294.876,507.173 L303.69,531.39 L287.773,531.39 L280.842,507.857 L274.082,507.258 L270.316,531.39 L256.283,531.39 L266.209,468.751 z M286.405,496.562 Q290.683,496.562 292.223,493.139 Q293.507,490.229 293.507,486.978 Q293.507,483.726 292.908,482.613 Q291.967,480.902 289.057,480.902 L278.361,480.902 L275.879,496.562 z" fill="#FFFFFF"/>
    <path d="M329.19,518.639 L348.957,518.639 L346.904,531.39 L321.318,531.39 Q315.414,531.39 312.504,528.651 Q309.595,525.913 309.595,521.634 Q309.595,520.265 309.766,518.725 L317.724,468.751 L331.758,468.751 L324.569,514.19 Q324.056,517.441 325.767,518.126 Q326.966,518.639 329.19,518.639 z" fill="#FFFFFF"/>
    <path d="M377.753,468.451 Q380.105,468.323 383.658,468.323 Q387.208,468.323 389.862,468.665 Q392.513,469.007 395.124,469.949 Q397.733,470.89 399.617,472.43 Q405.521,477.565 405.521,489.887 Q405.521,495.364 404.536,501.653 Q403.552,507.943 402.184,512.435 Q400.815,516.928 399.275,520.051 Q397.733,523.175 395.509,525.357 Q393.284,527.539 391.188,528.78 Q389.091,530.021 386.095,530.705 Q381.389,531.732 376.042,531.732 Q370.693,531.732 368.04,531.432 Q365.388,531.133 362.734,530.234 Q360.082,529.336 358.285,527.796 Q354.091,524.287 352.893,517.869 Q352.38,514.874 352.38,512.564 Q352.38,510.253 352.423,507.558 Q352.466,504.862 353.451,498.787 Q354.435,492.711 355.888,487.962 Q357.344,483.212 358.884,480.003 Q360.424,476.795 362.777,474.57 Q365.13,472.345 367.142,471.104 Q369.152,469.863 372.276,469.221 Q375.4,468.58 377.753,468.451 z M369.28,491.599 Q368.297,495.107 367.355,501.097 Q366.414,507.087 366.414,509.141 Q366.414,511.195 366.543,512.735 Q366.671,514.275 367.228,515.516 Q367.784,516.757 368.982,517.613 Q371.035,518.982 375.742,518.982 Q380.448,518.982 383.016,517.527 Q385.582,516.072 387.379,512.093 Q389.177,508.114 390.203,501.696 Q391.401,494.166 391.401,491 Q391.401,487.833 391.06,485.908 Q390.716,483.983 389.391,482.913 Q388.065,481.843 386.439,481.458 Q384.812,481.073 381.988,481.073 Q379.164,481.073 377.453,481.373 Q375.742,481.672 374.073,482.742 Q372.405,483.811 371.335,485.951 Q370.264,488.09 369.28,491.599 z" fill="#FFFFFF"/>
    <path d="M442.66,468.751 Q450.789,468.751 454.982,473.971 Q457.977,477.821 457.977,484.582 Q457.977,491.77 455.667,497.76 Q454.383,500.926 453.142,502.595 Q451.902,504.263 450.105,505.333 Q448.307,506.403 447.323,506.659 Q446.339,506.916 444.97,507.173 L453.784,531.39 L437.868,531.39 L430.936,507.857 L424.176,507.258 L420.411,531.39 L406.377,531.39 L416.303,468.751 z M436.498,496.562 Q440.777,496.562 442.317,493.139 Q443.601,490.229 443.601,486.978 Q443.601,483.726 443.002,482.613 Q442.061,480.902 439.151,480.902 L428.455,480.902 L425.973,496.562 z" fill="#FFFFFF"/>
    <path d="M494.003,468.751 Q499.137,468.751 502.773,470.633 Q506.41,472.516 508.379,475.596 Q511.887,481.33 511.887,491.171 Q511.887,495.963 510.945,502.295 Q507.694,523.603 497.767,528.823 Q492.805,531.39 485.189,531.39 L457.977,531.39 L467.904,468.751 Q467.904,468.751 494.003,468.751 z M484.846,519.238 Q489.81,519.238 492.633,514.532 Q495.457,509.825 496.997,500.241 Q497.939,493.224 497.939,489.844 Q497.939,486.464 496.954,484.453 Q495.97,482.442 494.387,481.672 Q492.805,480.902 490.323,480.902 L479.969,480.902 L473.893,519.238 z" fill="#FFFFFF"/>
    <g>
      <path d="M366.388,309.146 C398.556,309.146 424.632,339.17 424.632,376.206 C424.632,413.243 398.556,443.267 366.388,443.267 L245.612,443.267 C213.445,443.267 187.368,413.243 187.368,376.206 C187.368,339.17 213.445,309.146 245.612,309.146 L366.388,309.146 z M366.388,320.146 L245.612,320.146 C219.891,320.146 198.368,344.927 198.368,376.206 C198.368,407.485 219.891,432.267 245.612,432.267 L366.388,432.267 C392.109,432.267 413.632,407.485 413.632,376.206 C413.632,344.927 392.109,320.146 366.388,320.146 z" fill="#FFFFFF"/>
      <path d="M366.388,299.081 L366.415,299.082 L366.445,299.081 L367.198,299.086 L368.867,299.133 L370.584,299.23 L372.289,299.376 L373.984,299.571 L375.667,299.814 L377.336,300.105 L378.993,300.442 L380.636,300.825 L382.264,301.255 L383.877,301.729 L385.475,302.249 L387.055,302.811 L388.62,303.417 L390.166,304.065 L391.694,304.756 L393.203,305.487 L394.693,306.26 L396.164,307.073 L397.613,307.924 L399.043,308.814 L400.451,309.743 L401.837,310.708 L403.2,311.712 L404.54,312.751 L405.857,313.824 L407.149,314.935 L408.417,316.078 L409.661,317.256 L410.878,318.467 L412.07,319.71 L413.236,320.985 L414.374,322.291 L415.484,323.629 L416.567,324.996 L417.622,326.393 L418.647,327.819 L419.644,329.274 L420.61,330.756 L421.545,332.266 L422.449,333.802 L423.323,335.365 L424.164,336.953 L424.972,338.566 L425.747,340.203 L426.488,341.863 L427.196,343.547 L427.869,345.254 L428.507,346.983 L429.109,348.732 L429.674,350.502 L430.203,352.293 L430.695,354.102 L431.149,355.931 L431.564,357.776 L431.941,359.641 L432.277,361.521 L432.574,363.417 L432.83,365.328 L433.046,367.254 L433.22,369.194 L433.352,371.146 L433.441,373.112 L433.487,375.089 L433.494,376.143 C433.495,376.186 433.495,376.227 433.494,376.269 L433.49,377.136 L433.449,379.05 L433.366,381.016 L433.239,382.969 L433.071,384.91 L432.861,386.837 L432.61,388.75 L432.318,390.648 L431.987,392.53 L431.615,394.395 L431.205,396.243 L430.757,398.074 L430.27,399.885 L429.745,401.678 L429.184,403.452 L428.587,405.204 L427.954,406.934 L427.286,408.644 L426.583,410.331 L425.846,411.995 L425.075,413.636 L424.27,415.251 L423.433,416.842 L422.565,418.409 L421.664,419.948 L420.733,421.461 L419.77,422.947 L418.779,424.405 L417.757,425.836 L416.707,427.236 L415.627,428.608 L414.52,429.948 L413.386,431.259 L412.224,432.538 L411.036,433.785 L409.822,435 L408.582,436.182 L407.317,437.33 L406.028,438.444 L404.714,439.522 L403.378,440.566 L402.017,441.574 L400.636,442.544 L399.231,443.477 L397.805,444.373 L396.359,445.229 L394.891,446.047 L393.404,446.825 L391.897,447.561 L390.372,448.257 L388.828,448.911 L387.266,449.523 L385.688,450.092 L384.093,450.616 L382.481,451.098 L380.855,451.532 L379.215,451.923 L377.559,452.266 L375.89,452.563 L374.209,452.813 L372.515,453.014 L370.81,453.167 L369.094,453.27 L367.369,453.324 L366.445,453.332 L245.555,453.332 L244.802,453.327 L243.133,453.28 L241.416,453.183 L239.711,453.037 L238.016,452.842 L236.333,452.599 L234.664,452.308 L233.007,451.971 L231.364,451.588 L229.736,451.158 L228.123,450.684 L226.525,450.164 L224.945,449.602 L223.38,448.996 L221.834,448.348 L220.306,447.657 L218.797,446.925 L217.307,446.152 L215.837,445.34 L214.387,444.489 L212.957,443.599 L211.55,442.67 L210.163,441.705 L208.8,440.701 L207.46,439.662 L206.143,438.588 L204.851,437.478 L203.583,436.335 L202.339,435.157 L201.122,433.946 L199.93,432.703 L198.764,431.428 L197.626,430.121 L196.516,428.784 L195.433,427.417 L194.378,426.02 L193.353,424.594 L192.357,423.139 L191.391,421.657 L190.456,420.147 L189.551,418.611 L188.678,417.048 L187.837,415.46 L187.028,413.847 L186.253,412.21 L185.511,410.55 L184.804,408.866 L184.131,407.159 L183.493,405.43 L182.891,403.681 L182.326,401.911 L181.797,400.12 L181.305,398.311 L180.851,396.482 L180.436,394.636 L180.059,392.772 L179.723,390.892 L179.426,388.996 L179.17,387.085 L178.954,385.159 L178.78,383.219 L178.649,381.267 L178.559,379.301 L178.513,377.324 L178.505,376.269 L178.505,376.143 L178.51,375.277 L178.551,373.362 L178.634,371.397 L178.761,369.444 L178.93,367.503 L179.14,365.576 L179.39,363.663 L179.682,361.765 L180.013,359.883 L180.385,358.018 L180.795,356.17 L181.244,354.339 L181.73,352.527 L182.255,350.735 L182.815,348.961 L183.412,347.209 L184.046,345.478 L184.714,343.769 L185.417,342.082 L186.154,340.418 L186.926,338.777 L187.729,337.162 L188.567,335.57 L189.435,334.004 L190.336,332.464 L191.267,330.952 L192.229,329.466 L193.221,328.008 L194.242,326.577 L195.294,325.177 L196.372,323.805 L197.48,322.465 L198.615,321.154 L199.776,319.875 L200.964,318.628 L202.178,317.413 L203.418,316.231 L204.683,315.083 L205.972,313.969 L207.286,312.891 L208.622,311.847 L209.982,310.839 L211.364,309.869 L212.769,308.936 L214.195,308.04 L215.642,307.184 L217.109,306.366 L218.596,305.588 L220.103,304.851 L221.628,304.156 L223.172,303.502 L224.734,302.89 L226.312,302.321 L227.908,301.797 L229.519,301.315 L231.145,300.881 L232.786,300.49 L234.441,300.147 L236.11,299.85 L237.791,299.6 L239.485,299.399 L241.189,299.246 L242.905,299.143 L244.632,299.089 L245.555,299.081 L366.388,299.081 z M245.612,441.757 L245.604,442.332 L245.612,442.332 L245.612,441.757 z M245.668,319.21 L245.086,319.214 L243.815,319.247 L242.552,319.317 L241.3,319.424 L240.057,319.566 L238.823,319.743 L237.599,319.955 L236.387,320.201 L235.184,320.482 L233.992,320.795 L232.811,321.141 L231.642,321.519 L230.486,321.931 L229.341,322.374 L228.208,322.848 L227.089,323.352 L225.983,323.888 L224.89,324.453 L223.81,325.049 L222.746,325.673 L221.696,326.327 L220.661,327.008 L219.642,327.718 L218.639,328.455 L217.652,329.219 L216.681,330.01 L215.728,330.827 L214.792,331.67 L213.875,332.538 L212.976,333.432 L212.095,334.349 L211.234,335.291 L210.392,336.255 L209.571,337.243 L208.769,338.254 L207.99,339.286 L207.231,340.34 L206.493,341.415 L205.778,342.512 L205.086,343.628 L204.417,344.763 L203.771,345.919 L203.148,347.093 L202.549,348.285 L201.975,349.496 L201.427,350.723 L200.903,351.968 L200.405,353.229 L199.932,354.506 L199.487,355.8 L199.068,357.108 L198.676,358.432 L198.312,359.769 L197.975,361.121 L197.668,362.487 L197.389,363.866 L197.138,365.258 L196.917,366.663 L196.727,368.08 L196.566,369.509 L196.437,370.95 L196.338,372.402 L196.27,373.866 L196.235,375.403 L196.231,376.206 L196.233,376.822 L196.262,378.297 L196.324,379.76 L196.417,381.213 L196.542,382.655 L196.697,384.085 L196.882,385.503 L197.098,386.91 L197.343,388.303 L197.617,389.684 L197.92,391.052 L198.251,392.407 L198.61,393.747 L198.997,395.072 L199.411,396.384 L199.852,397.679 L200.32,398.96 L200.813,400.224 L201.333,401.472 L201.877,402.703 L202.447,403.916 L203.04,405.111 L203.659,406.289 L204.301,407.448 L204.966,408.587 L205.655,409.706 L206.366,410.806 L207.1,411.885 L207.855,412.943 L208.631,413.979 L209.428,414.993 L210.246,415.985 L211.083,416.954 L211.941,417.899 L212.818,418.821 L213.714,419.718 L214.628,420.591 L215.56,421.437 L216.51,422.259 L217.477,423.054 L218.461,423.823 L219.46,424.565 L220.476,425.279 L221.508,425.966 L222.555,426.624 L223.616,427.253 L224.692,427.853 L225.782,428.423 L226.886,428.965 L228.002,429.475 L229.132,429.954 L230.275,430.403 L231.43,430.82 L232.596,431.204 L233.775,431.557 L234.964,431.877 L236.165,432.163 L237.376,432.415 L238.599,432.634 L239.831,432.817 L241.074,432.966 L242.326,433.079 L243.587,433.156 L244.916,433.196 L245.668,433.203 L245.612,433.201 L366.388,433.201 L366.332,433.203 L366.914,433.199 L368.185,433.166 L369.447,433.096 L370.7,432.989 L371.944,432.847 L373.177,432.67 L374.4,432.458 L375.614,432.212 L376.816,431.931 L378.008,431.618 L379.189,431.272 L380.357,430.893 L381.514,430.482 L382.659,430.039 L383.792,429.565 L384.911,429.061 L386.018,428.525 L387.11,427.96 L388.19,427.364 L389.254,426.74 L390.304,426.086 L391.339,425.405 L392.358,424.695 L393.361,423.957 L394.349,423.194 L395.319,422.402 L396.272,421.586 L397.208,420.743 L398.125,419.875 L399.025,418.981 L399.905,418.064 L400.766,417.122 L401.608,416.158 L402.43,415.169 L403.23,414.159 L404.011,413.127 L404.769,412.073 L405.507,410.997 L406.221,409.901 L406.914,408.785 L407.583,407.65 L408.229,406.494 L408.852,405.32 L409.451,404.128 L410.025,402.917 L410.573,401.69 L411.097,400.445 L411.595,399.184 L412.068,397.907 L412.513,396.613 L412.932,395.305 L413.324,393.981 L413.688,392.643 L414.025,391.292 L414.332,389.926 L414.611,388.547 L414.861,387.155 L415.082,385.75 L415.273,384.333 L415.434,382.903 L415.563,381.463 L415.663,380.011 L415.73,378.547 L415.764,377.01 L415.769,376.193 L415.767,375.591 L415.738,374.116 L415.676,372.653 L415.583,371.199 L415.459,369.758 L415.303,368.328 L415.117,366.91 L414.902,365.503 L414.657,364.109 L414.384,362.729 L414.081,361.361 L413.749,360.006 L413.39,358.666 L413.003,357.341 L412.589,356.029 L412.148,354.734 L411.68,353.453 L411.187,352.189 L410.667,350.941 L410.123,349.71 L409.553,348.497 L408.96,347.302 L408.341,346.124 L407.698,344.965 L407.034,343.826 L406.345,342.707 L405.633,341.607 L404.901,340.528 L404.145,339.47 L403.369,338.434 L402.572,337.419 L401.754,336.428 L400.917,335.459 L400.059,334.514 L399.182,333.592 L398.286,332.695 L397.372,331.822 L396.44,330.976 L395.49,330.154 L394.523,329.359 L393.539,328.59 L392.54,327.848 L391.524,327.134 L390.492,326.447 L389.446,325.789 L388.384,325.16 L387.308,324.56 L386.218,323.989 L385.114,323.448 L383.998,322.938 L382.868,322.458 L381.725,322.01 L380.57,321.593 L379.403,321.208 L378.225,320.856 L377.035,320.536 L375.835,320.25 L374.624,319.997 L373.401,319.779 L372.169,319.596 L370.926,319.447 L369.674,319.334 L368.413,319.257 L367.084,319.216 L366.397,319.211 L366.388,319.211 L245.612,319.211 L245.668,319.21 z" fill="#FFFFFF"/>
    </g>
    <g>
      <path d="M247.573,365.338 C255.707,365.338 262.301,372.022 262.301,380.268 C262.363,382.919 261.638,384.709 260.652,387.075 C258.413,381.913 252.915,379.224 247.573,378.951 C242.315,379.102 236.615,381.983 234.494,387.075 C233.324,384.962 232.963,382.639 232.846,380.268 C232.846,372.022 239.44,365.338 247.573,365.338 z" fill="#FFFFFF"/>
      <path d="M247.573,365.338 L247.954,365.342" fill="#FFFFFF"/>
    </g>
    <g>
      <path d="M364.423,365.338 C372.557,365.338 379.151,372.022 379.151,380.268 C379.213,382.919 378.488,384.709 377.502,387.075 C375.263,381.913 369.765,379.224 364.423,378.951 C359.165,379.102 353.465,381.983 351.343,387.075 C350.173,384.962 349.813,382.639 349.695,380.268 C349.695,372.022 356.289,365.338 364.423,365.338 z" fill="#FFFFFF"/>
      <path d="M364.423,365.338 L364.803,365.342" fill="#FFFFFF"/>
    </g>
  </g>
</svg>
