<?xml version="1.0" encoding="UTF-8"?>
<!DOCTYPE svg PUBLIC "-//W3C//DTD SVG 1.1//EN" "http://www.w3.org/Graphics/SVG/1.1/DTD/svg11.dtd">
<svg version="1.1" xmlns="http://www.w3.org/2000/svg" xmlns:xlink="http://www.w3.org/1999/xlink" x="0" y="0" width="612" height="792" viewBox="0, 0, 612, 792">
  <g id="Layer_1">
    <g>
      <path d="M354.845,292.814 C387.012,292.814 413.089,322.838 413.089,359.874 C413.089,396.911 387.012,426.935 354.845,426.935 L234.068,426.935 C201.901,426.935 175.824,396.911 175.824,359.874 C175.824,322.838 201.901,292.814 234.068,292.814 L354.845,292.814 z M354.845,303.814 L234.068,303.814 C208.348,303.814 186.824,328.595 186.824,359.874 C186.824,391.153 208.348,415.935 234.068,415.935 L354.845,415.935 C380.566,415.935 402.089,391.153 402.089,359.874 C402.089,328.595 380.566,303.814 354.845,303.814 z" fill="#FFFFFF"/>
      <path d="M354.845,282.749 L354.871,282.75 L354.902,282.749 L355.655,282.754 L357.324,282.801 L359.041,282.898 L360.746,283.044 L362.44,283.239 L364.124,283.482 L365.793,283.773 L367.45,284.11 L369.093,284.493 L370.721,284.923 L372.334,285.397 L373.932,285.917 L375.512,286.479 L377.076,287.085 L378.623,287.733 L380.151,288.424 L381.66,289.155 L383.15,289.928 L384.62,290.741 L386.07,291.592 L387.5,292.482 L388.907,293.411 L390.293,294.376 L391.656,295.38 L392.996,296.419 L394.314,297.492 L395.606,298.603 L396.874,299.746 L398.117,300.924 L399.335,302.135 L400.527,303.378 L401.693,304.653 L402.831,305.959 L403.941,307.297 L405.024,308.664 L406.079,310.061 L407.104,311.487 L408.1,312.942 L409.066,314.424 L410.001,315.934 L410.906,317.47 L411.779,319.033 L412.62,320.621 L413.429,322.234 L414.204,323.871 L414.945,325.531 L415.653,327.215 L416.326,328.922 L416.964,330.651 L417.566,332.4 L418.131,334.17 L418.66,335.961 L419.152,337.77 L419.606,339.599 L420.021,341.444 L420.397,343.309 L420.734,345.189 L421.031,347.085 L421.287,348.996 L421.503,350.922 L421.677,352.862 L421.808,354.814 L421.898,356.78 L421.944,358.757 L421.951,359.811 C421.952,359.854 421.952,359.895 421.951,359.937 L421.947,360.804 L421.906,362.718 L421.823,364.684 L421.696,366.637 L421.527,368.578 L421.317,370.505 L421.066,372.418 L420.775,374.316 L420.443,376.198 L420.072,378.063 L419.662,379.911 L419.213,381.742 L418.727,383.553 L418.202,385.346 L417.641,387.12 L417.044,388.872 L416.411,390.602 L415.743,392.312 L415.04,393.999 L414.302,395.663 L413.531,397.304 L412.727,398.919 L411.89,400.51 L411.022,402.077 L410.121,403.616 L409.19,405.129 L408.227,406.615 L407.235,408.073 L406.213,409.504 L405.163,410.904 L404.084,412.276 L402.977,413.616 L401.842,414.927 L400.68,416.206 L399.493,417.453 L398.279,418.668 L397.039,419.85 L395.774,420.998 L394.484,422.112 L393.171,423.19 L391.835,424.234 L390.474,425.242 L389.092,426.212 L387.688,427.145 L386.262,428.041 L384.815,428.897 L383.348,429.715 L381.861,430.493 L380.354,431.229 L378.828,431.925 L377.285,432.579 L375.723,433.191 L374.145,433.76 L372.549,434.284 L370.938,434.766 L369.312,435.2 L367.671,435.591 L366.016,435.934 L364.347,436.231 L362.666,436.481 L360.972,436.682 L359.267,436.835 L357.551,436.938 L355.825,436.992 L354.902,437 L234.012,437 L233.258,436.995 L231.589,436.948 L229.873,436.851 L228.168,436.705 L226.473,436.51 L224.79,436.267 L223.12,435.976 L221.464,435.639 L219.821,435.256 L218.193,434.826 L216.58,434.352 L214.982,433.832 L213.402,433.27 L211.837,432.664 L210.291,432.016 L208.763,431.325 L207.253,430.593 L205.764,429.82 L204.293,429.008 L202.843,428.157 L201.414,427.267 L200.006,426.338 L198.62,425.373 L197.257,424.369 L195.917,423.33 L194.6,422.256 L193.308,421.146 L192.04,420.003 L190.796,418.825 L189.579,417.614 L188.387,416.371 L187.221,415.096 L186.083,413.789 L184.973,412.452 L183.889,411.085 L182.835,409.688 L181.809,408.262 L180.813,406.807 L179.847,405.325 L178.912,403.815 L178.007,402.279 L177.134,400.716 L176.293,399.128 L175.485,397.515 L174.71,395.878 L173.968,394.218 L173.26,392.534 L172.588,390.827 L171.95,389.098 L171.348,387.349 L170.782,385.579 L170.253,383.788 L169.761,381.979 L169.308,380.15 L168.893,378.304 L168.516,376.44 L168.18,374.56 L167.883,372.664 L167.626,370.753 L167.411,368.827 L167.236,366.887 L167.105,364.935 L167.016,362.969 L166.97,360.992 L166.962,359.937 L166.962,359.811 L166.967,358.945 L167.008,357.03 L167.091,355.065 L167.218,353.112 L167.386,351.171 L167.596,349.244 L167.847,347.331 L168.139,345.433 L168.47,343.551 L168.842,341.686 L169.252,339.838 L169.7,338.007 L170.187,336.195 L170.712,334.403 L171.272,332.629 L171.869,330.877 L172.503,329.146 L173.171,327.437 L173.874,325.75 L174.611,324.086 L175.382,322.445 L176.186,320.83 L177.024,319.238 L177.892,317.672 L178.793,316.132 L179.724,314.62 L180.686,313.134 L181.678,311.676 L182.699,310.245 L183.75,308.845 L184.829,307.473 L185.937,306.133 L187.071,304.822 L188.233,303.543 L189.421,302.296 L190.635,301.081 L191.875,299.899 L193.139,298.751 L194.429,297.637 L195.742,296.559 L197.079,295.515 L198.439,294.507 L199.821,293.537 L201.226,292.604 L202.652,291.708 L204.098,290.852 L205.566,290.034 L207.053,289.256 L208.56,288.519 L210.085,287.824 L211.629,287.17 L213.191,286.558 L214.769,285.989 L216.364,285.465 L217.975,284.983 L219.602,284.549 L221.242,284.158 L222.898,283.815 L224.567,283.518 L226.248,283.268 L227.942,283.067 L229.646,282.914 L231.362,282.811 L233.088,282.757 L234.012,282.749 L354.845,282.749 z M234.068,425.425 L234.061,426 L234.068,426 L234.068,425.425 z M234.125,302.878 L233.543,302.882 L232.272,302.915 L231.009,302.985 L229.757,303.092 L228.513,303.234 L227.28,303.411 L226.056,303.623 L224.843,303.869 L223.641,304.15 L222.449,304.463 L221.268,304.809 L220.099,305.187 L218.942,305.599 L217.797,306.042 L216.665,306.516 L215.545,307.02 L214.439,307.556 L213.346,308.121 L212.267,308.717 L211.203,309.341 L210.152,309.995 L209.118,310.676 L208.099,311.386 L207.096,312.123 L206.108,312.887 L205.138,313.678 L204.185,314.495 L203.249,315.338 L202.332,316.206 L201.432,317.1 L200.551,318.017 L199.691,318.959 L198.849,319.923 L198.027,320.911 L197.226,321.922 L196.446,322.954 L195.688,324.008 L194.95,325.083 L194.235,326.18 L193.543,327.296 L192.874,328.431 L192.228,329.587 L191.605,330.761 L191.006,331.953 L190.432,333.164 L189.883,334.391 L189.36,335.636 L188.861,336.897 L188.389,338.174 L187.943,339.468 L187.525,340.776 L187.133,342.1 L186.769,343.437 L186.432,344.789 L186.125,346.155 L185.846,347.534 L185.595,348.926 L185.374,350.331 L185.184,351.748 L185.023,353.177 L184.894,354.618 L184.794,356.07 L184.727,357.534 L184.692,359.071 L184.688,359.883 L184.69,360.49 L184.719,361.965 L184.781,363.428 L184.874,364.881 L184.998,366.323 L185.153,367.753 L185.339,369.171 L185.555,370.578 L185.799,371.971 L186.073,373.352 L186.376,374.72 L186.708,376.075 L187.067,377.415 L187.454,378.74 L187.868,380.052 L188.309,381.347 L188.776,382.628 L189.27,383.892 L189.789,385.14 L190.334,386.371 L190.904,387.584 L191.497,388.779 L192.116,389.957 L192.758,391.116 L193.423,392.255 L194.112,393.374 L194.823,394.474 L195.556,395.553 L196.311,396.611 L197.088,397.647 L197.885,398.661 L198.703,399.653 L199.54,400.622 L200.398,401.567 L201.275,402.489 L202.171,403.386 L203.084,404.259 L204.017,405.105 L204.967,405.927 L205.934,406.722 L206.917,407.491 L207.917,408.233 L208.933,408.947 L209.964,409.634 L211.011,410.292 L212.073,410.921 L213.149,411.521 L214.239,412.091 L215.342,412.633 L216.459,413.143 L217.589,413.622 L218.732,414.071 L219.886,414.488 L221.053,414.872 L222.231,415.225 L223.421,415.545 L224.622,415.831 L225.833,416.083 L227.055,416.302 L228.288,416.485 L229.531,416.634 L230.783,416.747 L232.044,416.824 L233.373,416.864 L234.125,416.871 L234.068,416.869 L354.845,416.869 L354.788,416.871 L355.371,416.867 L356.642,416.834 L357.904,416.764 L359.157,416.657 L360.4,416.515 L361.634,416.338 L362.857,416.126 L364.07,415.88 L365.273,415.599 L366.465,415.286 L367.646,414.94 L368.814,414.561 L369.971,414.15 L371.116,413.707 L372.249,413.233 L373.368,412.729 L374.474,412.193 L375.567,411.628 L376.647,411.032 L377.711,410.408 L378.76,409.754 L379.796,409.073 L380.815,408.363 L381.818,407.625 L382.805,406.862 L383.776,406.07 L384.728,405.254 L385.664,404.411 L386.582,403.543 L387.481,402.649 L388.361,401.732 L389.223,400.79 L390.065,399.826 L390.886,398.837 L391.687,397.827 L392.467,396.795 L393.226,395.741 L393.963,394.665 L394.678,393.569 L395.371,392.453 L396.04,391.318 L396.686,390.162 L397.309,388.988 L397.907,387.796 L398.482,386.585 L399.03,385.358 L399.554,384.113 L400.052,382.852 L400.525,381.575 L400.97,380.281 L401.389,378.973 L401.78,377.649 L402.145,376.311 L402.481,374.96 L402.789,373.594 L403.068,372.215 L403.318,370.823 L403.539,369.418 L403.73,368.001 L403.891,366.571 L404.02,365.131 L404.119,363.679 L404.186,362.215 L404.221,360.678 L404.226,359.86 L404.224,359.259 L404.194,357.784 L404.133,356.321 L404.039,354.867 L403.915,353.426 L403.76,351.996 L403.574,350.578 L403.359,349.171 L403.114,347.777 L402.84,346.397 L402.537,345.029 L402.206,343.674 L401.847,342.334 L401.46,341.009 L401.046,339.697 L400.605,338.402 L400.137,337.121 L399.643,335.857 L399.124,334.609 L398.58,333.378 L398.01,332.165 L397.416,330.97 L396.798,329.792 L396.155,328.633 L395.49,327.494 L394.802,326.375 L394.09,325.275 L393.357,324.196 L392.602,323.138 L391.826,322.102 L391.029,321.087 L390.211,320.096 L389.373,319.127 L388.516,318.182 L387.639,317.26 L386.743,316.363 L385.829,315.49 L384.897,314.644 L383.947,313.822 L382.98,313.027 L381.996,312.258 L380.996,311.516 L379.981,310.802 L378.949,310.115 L377.902,309.457 L376.841,308.828 L375.765,308.228 L374.675,307.657 L373.571,307.116 L372.454,306.606 L371.324,306.126 L370.182,305.678 L369.027,305.261 L367.86,304.876 L366.682,304.524 L365.492,304.204 L364.292,303.918 L363.08,303.665 L361.858,303.447 L360.625,303.264 L359.383,303.115 L358.13,303.002 L356.869,302.925 L355.541,302.884 L354.853,302.879 L354.845,302.879 L234.068,302.879 L234.125,302.878 z" fill="#FFFFFF"/>
    </g>
    <g>
      <g>
        <path d="M236.03,349.006 C244.164,349.006 250.758,355.69 250.758,363.936 C250.82,366.587 250.095,368.377 249.109,370.743 C246.869,365.581 241.372,362.892 236.03,362.619 C230.772,362.77 225.072,365.651 222.95,370.743 C221.78,368.63 221.42,366.307 221.302,363.936 C221.302,355.69 227.896,349.006 236.03,349.006 z" fill="#FFFFFF"/>
        <path d="M236.03,349.006 C244.164,349.006 250.758,355.69 250.758,363.936 C250.82,366.587 250.095,368.377 249.109,370.743 C246.869,365.581 241.372,362.892 236.03,362.619 C230.772,362.77 225.072,365.651 222.95,370.743 C221.78,368.63 221.42,366.307 221.302,363.936 C221.302,355.69 227.896,349.006 236.03,349.006 z" fill-opacity="0" stroke="#FFFFFF" stroke-width="1"/>
      </g>
      <g>
        <path d="M236.03,349.006 L236.41,349.01" fill="#FFFFFF"/>
        <path d="M236.03,349.006 L236.41,349.01" fill-opacity="0" stroke="#FFFFFF" stroke-width="1"/>
      </g>
    </g>
    <g>
      <g>
        <path d="M352.88,349.006 C361.013,349.006 367.607,355.69 367.607,363.936 C367.67,366.587 366.944,368.377 365.958,370.743 C363.719,365.581 358.221,362.892 352.88,362.619 C347.621,362.77 341.921,365.651 339.8,370.743 C338.63,368.63 338.27,366.307 338.152,363.936 C338.152,355.69 344.746,349.006 352.88,349.006 z" fill="#FFFFFF"/>
        <path d="M352.88,349.006 C361.013,349.006 367.607,355.69 367.607,363.936 C367.67,366.587 366.944,368.377 365.958,370.743 C363.719,365.581 358.221,362.892 352.88,362.619 C347.621,362.77 341.921,365.651 339.8,370.743 C338.63,368.63 338.27,366.307 338.152,363.936 C338.152,355.69 344.746,349.006 352.88,349.006 z" fill-opacity="0" stroke="#FFFFFF" stroke-width="1"/>
      </g>
      <g>
        <path d="M352.88,349.006 L353.26,349.01" fill="#FFFFFF"/>
        <path d="M352.88,349.006 L353.26,349.01" fill-opacity="0" stroke="#FFFFFF" stroke-width="1"/>
      </g>
    </g>
  </g>
</svg>
